<?xml version="1.0" standalone="no"?>
<!DOCTYPE svg PUBLIC "-//W3C//DTD SVG 20010904//EN"
 "http://www.w3.org/TR/2001/REC-SVG-20010904/DTD/svg10.dtd">
<svg version="1.0" xmlns="http://www.w3.org/2000/svg"
 width="1024.000000pt" height="1024.000000pt" viewBox="0 0 1024.000000 1024.000000"
 preserveAspectRatio="xMidYMid meet">

<g transform="translate(0.000000,1024.000000) scale(0.100000,-0.100000)"
fill="#000000" stroke="none">
<path d="M3877 7881 c-14 -17 -21 -1239 -9 -1676 l7 -280 543 0 c527 0 544 1
558 19 11 15 14 60 14 198 0 177 0 178 -23 183 -13 4 -174 7 -358 8 l-334 2 0
185 0 185 475 5 c473 5 475 5 507 28 77 55 114 136 94 208 -12 45 -70 118
-110 138 -20 11 -126 14 -493 17 -404 3 -469 6 -474 19 -3 8 -4 92 -3 187 l2
172 329 3 330 3 29 33 29 32 0 153 c0 107 -4 158 -12 170 -12 15 -60 17 -551
19 -452 3 -541 1 -550 -11z"/>
<path d="M5239 7888 c-16 -6 -19 -17 -19 -76 0 -67 1 -70 64 -168 36 -54 124
-193 197 -309 73 -115 161 -255 196 -309 35 -55 63 -106 63 -114 0 -21 -293
-489 -463 -742 l-58 -85 3 -80 3 -80 115 -5 115 -5 5 -1205 5 -1205 175 0 175
0 5 1380 5 1380 34 55 c63 103 89 130 126 130 36 0 55 -19 117 -121 l33 -54 5
-1385 5 -1385 175 0 175 0 5 1205 5 1205 143 3 142 3 0 41 c0 36 -15 65 -118
222 -143 218 -408 658 -427 707 -4 11 29 65 97 160 57 79 135 189 173 244 37
55 86 119 109 143 l40 42 358 0 358 0 0 -760 c0 -747 0 -760 20 -780 18 -18
33 -20 183 -20 117 0 168 4 181 13 16 12 17 59 17 780 l0 767 298 0 c287 0
299 1 325 21 l26 20 0 169 c0 93 -3 175 -6 184 -6 14 -102 16 -990 16 l-984 0
-100 -135 c-55 -75 -133 -183 -173 -242 -103 -151 -136 -186 -175 -186 -17 0
-38 6 -47 13 -14 12 -181 248 -318 449 -71 103 -62 99 -230 103 -82 2 -157 0
-168 -4z"/>
<path d="M1836 7859 c-3 -17 -6 -455 -6 -973 0 -719 3 -945 12 -954 8 -8 64
-12 184 -12 149 0 175 2 193 18 20 17 20 27 28 572 l8 555 75 -90 c41 -50 107
-126 146 -170 39 -44 95 -110 125 -146 81 -98 304 -364 373 -445 34 -39 103
-121 154 -183 l93 -111 97 0 c72 0 103 4 120 16 l22 15 0 970 0 969 -202 -2
-203 -3 -5 -555 -5 -554 -52 59 c-58 67 -193 230 -388 470 -188 232 -413 504
-451 548 l-34 37 -139 0 -138 0 -7 -31z"/>
<path d="M6695 7051 c-96 -60 -123 -163 -66 -253 91 -143 294 -104 335 65 15
65 -42 165 -111 193 -47 20 -122 17 -158 -5z"/>
<path d="M8190 6973 c-79 -71 -36 -203 65 -203 53 0 91 28 106 79 15 49 -7
103 -53 131 -45 28 -82 25 -118 -7z"/>
<path d="M8204 6182 c-18 -12 -38 -37 -48 -61 -14 -36 -14 -46 -2 -75 40 -95
156 -101 200 -9 46 96 -62 200 -150 145z"/>
<path d="M2685 5560 c-174 -19 -364 -91 -485 -185 -66 -52 -172 -161 -223
-232 -54 -75 -132 -245 -156 -343 -133 -527 179 -1078 709 -1254 301 -99 662
-31 953 180 l47 34 0 461 0 460 -408 -3 -408 -3 -41 -27 c-22 -14 -47 -42 -56
-61 -21 -43 -22 -116 -3 -161 21 -51 83 -114 140 -143 45 -23 67 -27 189 -32
162 -7 167 -10 167 -102 0 -47 -5 -63 -25 -87 -67 -79 -278 -110 -432 -63
-119 36 -268 167 -331 292 -77 153 -78 345 -1 506 33 71 154 185 242 228 80
39 184 65 266 65 103 0 239 -46 309 -104 16 -15 36 -26 43 -25 8 0 47 39 87
85 l73 84 260 0 259 0 0 -803 c0 -611 3 -806 12 -815 9 -9 145 -12 550 -12
l538 0 15 24 c14 21 16 51 13 180 -4 220 34 200 -381 206 l-332 5 0 190 0 190
338 5 339 5 20 25 c19 23 20 35 16 178 -4 143 -6 154 -28 177 l-23 25 -311 0
c-171 0 -321 3 -334 6 l-22 6 2 205 3 205 330 -1 c324 -2 332 -2 358 19 l27
21 0 178 c0 137 -3 182 -14 197 -14 19 -38 19 -1118 20 -607 1 -1134 -2 -1173
-6z"/>
<path d="M6759 5558 c-19 -7 -19 -26 -17 -1030 l3 -1023 189 -3 c130 -2 193 1
202 9 12 10 14 114 14 615 0 332 3 604 8 604 4 -1 62 -69 129 -153 132 -165
484 -600 709 -878 77 -96 148 -180 156 -187 12 -9 51 -12 144 -10 l129 3 0
1025 0 1025 -193 3 -192 2 -10 -25 c-6 -16 -10 -251 -10 -607 l0 -581 -21 19
c-18 16 -491 604 -866 1077 l-94 117 -72 1 c-39 0 -98 1 -130 2 -32 1 -67 -1
-78 -5z"/>
<path d="M4273 3065 c-229 -62 -375 -284 -329 -502 43 -207 203 -351 402 -361
140 -7 241 34 338 138 135 146 163 324 78 498 -56 116 -185 210 -318 232 -77
13 -108 12 -171 -5z m183 -234 c81 -37 134 -140 119 -230 -14 -84 -90 -160
-176 -176 -114 -21 -229 84 -229 210 0 156 149 258 286 196z"/>
<path d="M5617 3063 c-4 -3 -7 -50 -7 -104 0 -79 3 -98 16 -103 9 -3 62 -6
120 -6 l104 0 2 -322 3 -323 112 -3 c110 -3 113 -2 118 20 3 13 4 159 3 325
l-3 302 125 3 125 3 3 108 3 107 -359 0 c-197 0 -362 -3 -365 -7z"/>
<path d="M7302 3058 c-9 -9 -12 -113 -12 -419 0 -224 3 -414 6 -423 5 -14 37
-16 255 -16 l249 0 5 23 c3 12 5 58 3 102 l-3 80 -167 3 -168 2 0 65 0 65 163
2 162 3 3 88 3 87 -166 0 -165 0 0 70 0 70 168 2 167 3 0 100 0 100 -245 3
c-183 2 -249 -1 -258 -10z"/>
<path d="M2483 3048 c13 -31 207 -653 251 -803 l12 -40 107 -3 107 -3 26 58
c14 32 41 99 60 148 19 50 44 109 54 132 11 24 20 49 20 57 0 8 4 16 8 18 10
3 192 416 192 434 0 17 -219 19 -241 2 -16 -13 -68 -128 -73 -160 -1 -10 -5
-21 -9 -24 -4 -4 -7 -16 -7 -26 0 -10 -5 -18 -10 -18 -6 0 -9 -3 -8 -7 0 -5
-8 -28 -20 -53 -11 -25 -22 -52 -24 -60 -2 -8 -6 -17 -9 -20 -4 -3 -14 -23
-23 -44 -19 -46 -26 -41 -50 39 -10 33 -24 76 -32 95 -7 19 -28 87 -46 150
-17 63 -36 117 -40 118 -5 2 -6 8 -2 13 3 5 -47 9 -121 9 -97 0 -125 -3 -122
-12z"/>
<path d="M2039 2725 c-54 -29 -75 -99 -46 -154 6 -13 29 -33 50 -44 33 -17 44
-18 77 -8 96 29 106 169 15 207 -42 17 -63 17 -96 -1z"/>
<path d="M8203 2721 c-40 -25 -53 -49 -53 -98 0 -46 20 -77 62 -99 74 -38 168
35 152 120 -13 74 -100 115 -161 77z"/>
</g>
</svg>
